<?xml version="1.0" encoding="UTF-8"?>
<svg id="Layer_1" xmlns="http://www.w3.org/2000/svg" version="1.1" xmlns:xlink="http://www.w3.org/1999/xlink" viewBox="0 0 113 22">
  <!-- Generator: Adobe Illustrator 29.6.1, SVG Export Plug-In . SVG Version: 2.1.1 Build 9)  -->
  <defs>
    <style>
      .st0 {
        fill: #3a98cc;
      }

      .st1 {
        fill: url(#linear-gradient);
      }
    </style>
    <linearGradient id="linear-gradient" x1=".85" y1="11" x2="34.93" y2="11" gradientUnits="userSpaceOnUse">
      <stop offset="0" stop-color="#2a485c"/>
      <stop offset=".4" stop-color="#2b759d"/>
      <stop offset="1" stop-color="#3a98cc"/>
    </linearGradient>
  </defs>
  <path class="st1" d="M29.37,5.33v2.08c0,.13.13.23.28.23h0c.15,0,.28-.11.28-.23v-2.08c0-.13.13-.23.28-.23h4.02c.4,0,.73.28.7.62-.04.46-.21.9-.49,1.25l-2.07,2.54c-.67.82-.67,2.15,0,2.97l2.07,2.54c.29.35.45.79.49,1.25.03.34-.3.62-.7.62h-4.01c-.15,0-.28-.11-.28-.23v-1.85c0-.13-.13-.23-.28-.23h0c-.15,0-.28.11-.28.23v1.85c0,.13-.13.23-.28.23h-4.03c-.4,0-.73-.28-.7-.62.04-.46.21-.9.49-1.25l2.07-2.54c.67-.82.67-2.15,0-2.97l-2.07-2.54c-.29-.35-.45-.79-.49-1.25-.03-.34.3-.62.7-.62h4.02c.15,0,.28.11.28.23ZM18.17,5.1h5.31c.22,0,.4.18.4.4h0c0,1.08-.87,1.95-1.95,1.95h-3.33c-.58,0-1.05.47-1.05,1.05v1.44l.17-.14c.23-.19.52-.3.82-.3h3.01c.26,0,.47.21.47.47h0c0,.87-.71,1.58-1.58,1.58h-2.08c-.45,0-.81.36-.81.81v1.45c0,1.7-1.38,3.08-3.08,3.08h-1.7c-.12,0-.14-.17-.02-.2l.52-.12c1.17-.27,1.99-1.31,1.99-2.51v-6.06c0-1.61,1.31-2.92,2.92-2.92ZM13.95,15.88l-.53.05c-.9.09-1.76-.29-2.29-.97.19-.21.37-.43.52-.67.64-.94,1.01-2.08,1.01-3.3,0-1.75-.76-3.33-1.98-4.41-1.04-.93-2.42-1.49-3.93-1.49-2.07,0-3.9,1.07-4.95,2.68-.45.69-.76,1.47-.89,2.32-.04.29-.07.59-.07.9,0,3.26,2.64,5.9,5.9,5.9,1.01,0,1.97-.26,2.8-.71.79.58,1.83.77,2.82.43l1.61-.55c.11-.04.07-.2-.04-.19ZM9.53,12.87c-.33.49-.78.88-1.31,1.14-.44.22-.94.34-1.47.34-.8,0-1.54-.28-2.11-.75-.54-.44-.94-1.04-1.12-1.73-.07-.28-.11-.56-.11-.86,0-.49.11-.96.3-1.38.53-1.16,1.69-1.96,3.05-1.96.7,0,1.36.22,1.9.59.11.08.22.16.33.25.69.61,1.12,1.51,1.12,2.5,0,.34-.05.68-.15.99-.1.32-.24.61-.42.88ZM8.16,10.72l-1.33-.77-.93-.54c-.22-.13-.49.03-.49.28v2.61c0,.25.27.41.49.28l2.26-1.3c.22-.12.22-.44,0-.56Z"/>
  <path class="st0" d="M105.88,9.74c-.75,0-1.22.49-1.22,1.22s.47,1.21,1.22,1.21,1.21-.47,1.21-1.21-.47-1.22-1.21-1.22ZM105.88,9.74c-.75,0-1.22.49-1.22,1.22s.47,1.21,1.22,1.21,1.21-.47,1.21-1.21-.47-1.22-1.21-1.22ZM105.88,5.1c-2.89,0-6.26,1.93-6.26,5.86s3.37,5.85,6.26,5.85,6.27-1.93,6.27-5.85-3.39-5.86-6.27-5.86ZM105.88,14.28c-1.65,0-3.56-1.08-3.56-3.33s1.92-3.34,3.56-3.34,3.55,1.1,3.55,3.34-1.92,3.33-3.55,3.33ZM105.88,9.74c-.75,0-1.22.49-1.22,1.22s.47,1.21,1.22,1.21,1.21-.47,1.21-1.21-.47-1.22-1.21-1.22ZM94.34,9.31v7.59h2.85v-7.59h-2.85ZM94.34,5.1v2.38h2.85v-2.38h-2.85ZM86.13,5.1h-6.76v2.36h6.68c2.11,0,3.15,1.77,3.15,3.54s-1.03,3.51-3.09,3.54h-6.75v2.36h6.76c4.03-.03,6.04-2.97,6.04-5.9s-2.01-5.87-6.04-5.9ZM65.66,14.52v2.38h10.76v-2.38h-10.76ZM74.16,5.1v2.93c0,1.7-1.55,2.56-3.12,2.56s-3.12-.86-3.12-2.56v-2.93h-2.85v2.93c0,3.51,2.99,5.24,5.97,5.24s5.97-1.74,5.97-5.24v-2.93h-2.85ZM55.5,9.31v7.59h2.85v-7.59h-2.85ZM38.68,7.46v2.41h9.32c.32,0,.63.05.93.15.3.1.56.24.79.42.23.18.41.4.55.65.14.25.21.52.21.82v2.65c0,.37-.08.69-.23.98-.15.29-.35.53-.6.72-.25.19-.54.35-.87.46-.33.11-.67.16-1.01.16h-11.47v-2.36h11.8v-2.41h-9.32c-.32,0-.63-.05-.93-.15-.3-.1-.56-.24-.79-.42-.23-.18-.41-.4-.55-.65-.14-.25-.21-.52-.21-.82v-2.65c0-.36.08-.68.23-.97.15-.29.35-.54.6-.73.25-.2.54-.35.86-.46s.66-.16,1.02-.16h24.49v2.36h-24.83Z"/>
</svg>